# xmcd
#
# Track frame offsets: 
#        150
#        12868
#        25550
#        36305
#        47677
#        60147
#        70852
#        86083
#        100937
#        114082
#        126051
#        137756
#        150212
#        162998
#        175618
#        186865
#        200339
#        211496
#        223736
#        236331
#
# Disc length: 3311 seconds
#
# Revision: 1
# Processed by: cddbd v1.5.2PL0 Copyright (c) Steve Scherf et al.
# Submitted via: ExactAudioCopy v0.95b4
#
DISCID=fd0ced14
DTITLE=Joe Turner - Jumpin Tonight
DYEAR=2006
DGENRE=Blues
TTITLE0=Adam Bit The Apple
TTITLE1=Still In The Dark
TTITLE2=Jumpin Tonight
TTITLE3=Lucille
TTITLE4=The Chill Is On
TTITLE5=Bump Miss Suzie
TTITLE6=Chains Of Love
TTITLE7=I'll Never Stop Loving You
TTITLE8=Sweet Sixteen
TTITLE9=Honey Hush
TTITLE10=Crawdad Hole
TTITLE11=Oke-She-Moke-She-Pop
TTITLE12=TV Mama
TTITLE13=Married Woman
TTITLE14=Midnight Cannonball
TTITLE15=Shake Rattle And Roll
TTITLE16=Well All Right
TTITLE17=Hide And Seek
TTITLE18=Flip Flop And Fly
TTITLE19=The Chicken And The Hawk
EXTD=
EXTT0=
EXTT1=
EXTT2=
EXTT3=
EXTT4=
EXTT5=
EXTT6=
EXTT7=
EXTT8=
EXTT9=
EXTT10=
EXTT11=
EXTT12=
EXTT13=
EXTT14=
EXTT15=
EXTT16=
EXTT17=
EXTT18=
EXTT19=
PLAYORDER=
